<svg width="16" height="17" viewBox="0 0 16 17" fill="none" xmlns="http://www.w3.org/2000/svg">
<g id="Arrow-down">
<path id="Union" fill-rule="evenodd" clip-rule="evenodd" d="M12.192 10.6626C12.4524 10.923 12.8745 10.923 13.1348 10.6626C13.3952 10.4023 13.3952 9.98019 13.1348 9.71984L8.47447 5.05949C8.47241 5.05738 8.47033 5.05527 8.46823 5.05317C8.33754 4.92248 8.16608 4.85739 7.99479 4.85791C7.82482 4.85841 7.65502 4.9235 7.52534 5.05317C7.52325 5.05526 7.52119 5.05735 7.51913 5.05946L2.85876 9.71984C2.5984 9.98019 2.5984 10.4023 2.85876 10.6626C3.1191 10.923 3.54121 10.923 3.80156 10.6626L7.99679 6.46743L12.192 10.6626Z" fill="#FCFCFC"/>
</g>
</svg>
